<?xml version="1.0" encoding="UTF-8" standalone="no"?>
<svg
   xmlns:dc="http://purl.org/dc/elements/1.1/"
   xmlns:cc="http://creativecommons.org/ns#"
   xmlns:rdf="http://www.w3.org/1999/02/22-rdf-syntax-ns#"
   xmlns:svg="http://www.w3.org/2000/svg"
   xmlns="http://www.w3.org/2000/svg"
   xmlns:sodipodi="http://sodipodi.sourceforge.net/DTD/sodipodi-0.dtd"
   xmlns:inkscape="http://www.inkscape.org/namespaces/inkscape"
   inkscape:version="1.0beta2 (2b71d25, 2019-12-03)"
   sodipodi:docname="favicon.svg"
   xml:space="preserve"
   viewBox="0 0 550.4 550.4"
   id="Layer_1"
   version="1.1"
   width="860"
   height="860"><metadata
   id="metadata850"><rdf:RDF><cc:Work
       rdf:about=""><dc:format>image/svg+xml</dc:format><dc:type
         rdf:resource="http://purl.org/dc/dcmitype/StillImage" /><dc:title></dc:title></cc:Work></rdf:RDF></metadata><defs
   id="defs848" /><sodipodi:namedview
   inkscape:current-layer="Layer_1"
   inkscape:window-maximized="1"
   inkscape:window-y="25"
   inkscape:window-x="0"
   inkscape:cy="440"
   inkscape:cx="446.3171"
   inkscape:zoom="0.71"
   inkscape:guide-bbox="true"
   showguides="true"
   inkscape:pagecheckerboard="true"
   lock-margins="true"
   fit-margin-bottom="20"
   fit-margin-right="20"
   fit-margin-left="20"
   fit-margin-top="20"
   showgrid="false"
   id="namedview846"
   inkscape:window-height="974"
   inkscape:window-width="1920"
   inkscape:pageshadow="2"
   inkscape:pageopacity="0"
   guidetolerance="10"
   gridtolerance="10"
   objecttolerance="10"
   borderopacity="1"
   inkscape:document-rotation="0"
   bordercolor="#666666"
   pagecolor="#ffffff" />
<g
   transform="translate(17.92,19.2)"
   id="g843">
	<path
   inkscape:connector-curvature="0"
   id="path833"
   d="m 365.714,201.143 c -30.299,0 -54.857,24.558 -54.857,54.857 0,30.299 24.558,54.857 54.857,54.857 30.299,0 54.857,-24.558 54.857,-54.857 0,-30.299 -24.557,-54.857 -54.857,-54.857"
   style="fill:#dd4a5f" />
	<path
   inkscape:connector-curvature="0"
   id="path835"
   d="m 256,210.286 c 30.299,0 54.857,-24.558 54.857,-54.857 0,-30.299 -24.558,-54.858 -54.857,-54.858 -30.299,0 -54.857,24.558 -54.857,54.857 0,30.299 24.558,54.858 54.857,54.858"
   style="fill:#dd4a5f" />
	<path
   inkscape:connector-curvature="0"
   id="path837"
   d="m 146.286,109.714 c 30.299,0 54.857,-24.558 54.857,-54.857 C 201.143,24.558 176.585,0 146.286,0 115.987,0 91.429,24.558 91.429,54.857 c 0,30.299 24.557,54.857 54.857,54.857"
   style="fill:#dd4a5f" />
	<path
   inkscape:connector-curvature="0"
   id="path839"
   d="m 256,301.714 c -30.299,0 -54.857,24.558 -54.857,54.857 0,30.299 24.558,54.857 54.857,54.857 30.299,0 54.857,-24.558 54.857,-54.857 0,-30.299 -24.558,-54.857 -54.857,-54.857"
   style="fill:#dd4a5f" />
	<path
   inkscape:connector-curvature="0"
   id="path841"
   d="m 146.286,402.286 c -30.299,0 -54.857,24.558 -54.857,54.857 0,30.299 24.558,54.857 54.857,54.857 30.299,0 54.857,-24.558 54.857,-54.857 0,-30.3 -24.558,-54.857 -54.857,-54.857"
   style="fill:#dd4a5f" />
</g>
</svg>
