<?xml version="1.0" encoding="UTF-8" standalone="no"?>
<svg
   xmlns:dc="http://purl.org/dc/elements/1.1/"
   xmlns:cc="http://creativecommons.org/ns#"
   xmlns:rdf="http://www.w3.org/1999/02/22-rdf-syntax-ns#"
   xmlns:svg="http://www.w3.org/2000/svg"
   xmlns="http://www.w3.org/2000/svg"
   height="860"
   width="860"
   version="1.1"
   id="Layer_1"
   viewBox="0 0 550.4 550.4"
   xml:space="preserve"><metadata
   id="metadata850"><rdf:RDF><cc:Work
       rdf:about=""><dc:format>image/svg+xml</dc:format><dc:type
         rdf:resource="http://purl.org/dc/dcmitype/StillImage" /><dc:title></dc:title></cc:Work></rdf:RDF></metadata><defs
   id="defs848" />
<g
   id="g843"
   transform="translate(17.92,19.2)">
	<path
   style="fill:#dd4a5f"
   d="m 365.714,201.143 c -30.299,0 -54.857,24.558 -54.857,54.857 0,30.299 24.558,54.857 54.857,54.857 30.299,0 54.857,-24.558 54.857,-54.857 0,-30.299 -24.557,-54.857 -54.857,-54.857"
   id="path833" />
	<path
   style="fill:#dd4a5f"
   d="m 256,210.286 c 30.299,0 54.857,-24.558 54.857,-54.857 0,-30.299 -24.558,-54.858 -54.857,-54.858 -30.299,0 -54.857,24.558 -54.857,54.857 0,30.299 24.558,54.858 54.857,54.858"
   id="path835" />
	<path
   style="fill:#dd4a5f"
   d="m 146.286,109.714 c 30.299,0 54.857,-24.558 54.857,-54.857 C 201.143,24.558 176.585,0 146.286,0 115.987,0 91.429,24.558 91.429,54.857 c 0,30.299 24.557,54.857 54.857,54.857"
   id="path837" />
	<path
   style="fill:#dd4a5f"
   d="m 256,301.714 c -30.299,0 -54.857,24.558 -54.857,54.857 0,30.299 24.558,54.857 54.857,54.857 30.299,0 54.857,-24.558 54.857,-54.857 0,-30.299 -24.558,-54.857 -54.857,-54.857"
   id="path839" />
	<path
   style="fill:#dd4a5f"
   d="m 146.286,402.286 c -30.299,0 -54.857,24.558 -54.857,54.857 0,30.299 24.558,54.857 54.857,54.857 30.299,0 54.857,-24.558 54.857,-54.857 0,-30.3 -24.558,-54.857 -54.857,-54.857"
   id="path841" />
</g>
</svg>
